<?xml version="1.0" encoding="UTF-8" standalone="no"?>
<!DOCTYPE svg PUBLIC "-//W3C//DTD SVG 1.1//EN" "http://www.w3.org/Graphics/SVG/1.1/DTD/svg11.dtd">
<svg width="100%" height="100%" viewBox="0 0 107 110" version="1.1" xmlns="http://www.w3.org/2000/svg" xmlns:xlink="http://www.w3.org/1999/xlink" xml:space="preserve" xmlns:serif="http://www.serif.com/" style="fill-rule:evenodd;clip-rule:evenodd;stroke-linejoin:round;stroke-miterlimit:2;">
    <g id="path1268" transform="matrix(2.83465,0,0,2.83465,-253.333,-260.383)">
        <path d="M92.967,104.403C92.968,104.403 92.968,104.403 92.968,104.402C93.853,100.36 97.569,97.317 102.006,97.317C102.803,97.317 103.594,97.418 104.36,97.612C103.746,94.336 100.874,91.857 97.419,91.857C93.518,91.857 90.355,95.02 90.355,98.92C90.355,101.133 91.374,103.108 92.967,104.403" style="fill:rgb(30,38,115);fill-rule:nonzero;"/>
    </g>
    <g id="path1270" transform="matrix(2.83465,0,0,2.83465,-253.333,-260.383)">
        <path d="M126.832,112.102L126.832,112.095C126.832,109.726 125.282,107.706 123.099,106.905C123.247,106.266 123.326,105.603 123.326,104.921C123.326,99.854 119.03,95.746 113.73,95.746C110.085,95.746 106.914,97.689 105.289,100.551C104.316,100.038 103.197,99.745 102.007,99.745C98.246,99.745 95.198,102.659 95.198,106.255C95.198,106.35 95.202,106.443 95.205,106.537L95.184,106.537C91.973,106.537 89.37,109.026 89.37,112.095L89.37,112.102L126.832,112.102Z" style="fill:rgb(30,38,115);fill-rule:nonzero;"/>
    </g>
    <g id="path1272" transform="matrix(2.83465,0,0,2.83465,-253.333,-260.383)">
        <path d="M125.726,118.468C126.183,117.316 126.535,116.113 126.761,114.865L89.456,114.865C89.682,116.113 90.033,117.316 90.491,118.468L125.726,118.468Z" style="fill:rgb(30,38,115);fill-rule:nonzero;"/>
    </g>
    <g id="path1274" transform="matrix(2.83465,0,0,2.83465,-253.333,-260.383)">
        <path d="M121.767,124.613C122.775,123.564 123.667,122.4 124.414,121.139L91.802,121.139C92.549,122.4 93.441,123.564 94.45,124.613L121.767,124.613Z" style="fill:rgb(30,38,115);fill-rule:nonzero;"/>
    </g>
    <g id="path1276" transform="matrix(2.83465,0,0,2.83465,-253.333,-260.383)">
        <path d="M97.651,127.285C100.647,129.273 104.241,130.434 108.109,130.434C111.976,130.434 115.569,129.273 118.567,127.285L97.651,127.285Z" style="fill:rgb(30,38,115);fill-rule:nonzero;"/>
    </g>
</svg>
